<svg width="48" height="48" viewBox="0 0 48 48" fill="none" xmlns="http://www.w3.org/2000/svg">
<g filter="url(#filter0_bii_205_13)">
<g clip-path="url(#clip0_205_13)">
<rect width="48" height="48" rx="20" fill="white" fill-opacity="0.02"/>
<rect width="48" height="48" rx="20" fill="url(#paint0_radial_205_13)" fill-opacity="0.6"/>
<path d="M31.0247 25.8109C31.8454 25.5412 32.8105 26.1511 32.5222 26.9654C32.2048 27.8619 31.7458 28.7069 31.1583 29.4668C30.1127 30.8192 28.7035 31.8458 27.0957 32.4265C25.4879 33.0073 23.748 33.1181 22.0795 32.7461C20.411 32.3741 18.883 31.5345 17.6742 30.3258C16.4655 29.117 15.626 27.589 15.2539 25.9205C14.8819 24.252 14.9927 22.5121 15.5735 20.9043C16.1542 19.2965 17.1809 17.8874 18.5332 16.8418C19.2931 16.2543 20.1381 15.7952 21.0346 15.4778C21.8489 15.1895 22.4588 16.1547 22.1891 16.9753C21.9048 17.8402 21.7898 18.7592 21.8586 19.6814C21.9832 21.3534 22.7039 22.9251 23.8894 24.1106C25.075 25.2961 26.6466 26.0168 28.3186 26.1415C29.2408 26.2102 30.1598 26.0952 31.0247 25.8109Z" stroke="url(#paint1_linear_205_13)" stroke-width="2" stroke-linecap="round" stroke-linejoin="round"/>
<g filter="url(#filter1_f_205_13)">
<ellipse cx="24" cy="45" rx="15" ry="3" fill="url(#paint2_linear_205_13)"/>
</g>
</g>
<rect x="0.5" y="0.5" width="47" height="47" rx="19.5" stroke="url(#paint3_linear_205_13)"/>
</g>
<defs>
<filter id="filter0_bii_205_13" x="-7" y="-7" width="62" height="62" filterUnits="userSpaceOnUse" color-interpolation-filters="sRGB">
<feFlood flood-opacity="0" result="BackgroundImageFix"/>
<feGaussianBlur in="BackgroundImageFix" stdDeviation="3.5"/>
<feComposite in2="SourceAlpha" operator="in" result="effect1_backgroundBlur_205_13"/>
<feBlend mode="normal" in="SourceGraphic" in2="effect1_backgroundBlur_205_13" result="shape"/>
<feColorMatrix in="SourceAlpha" type="matrix" values="0 0 0 0 0 0 0 0 0 0 0 0 0 0 0 0 0 0 127 0" result="hardAlpha"/>
<feOffset dx="1" dy="1"/>
<feGaussianBlur stdDeviation="1"/>
<feComposite in2="hardAlpha" operator="arithmetic" k2="-1" k3="1"/>
<feColorMatrix type="matrix" values="0 0 0 0 1 0 0 0 0 1 0 0 0 0 1 0 0 0 0.1 0"/>
<feBlend mode="normal" in2="shape" result="effect2_innerShadow_205_13"/>
<feColorMatrix in="SourceAlpha" type="matrix" values="0 0 0 0 0 0 0 0 0 0 0 0 0 0 0 0 0 0 127 0" result="hardAlpha"/>
<feOffset dy="-1"/>
<feGaussianBlur stdDeviation="3"/>
<feComposite in2="hardAlpha" operator="arithmetic" k2="-1" k3="1"/>
<feColorMatrix type="matrix" values="0 0 0 0 0.117647 0 0 0 0 0.482353 0 0 0 0 0.952941 0 0 0 0.35 0"/>
<feBlend mode="normal" in2="effect2_innerShadow_205_13" result="effect3_innerShadow_205_13"/>
</filter>
<filter id="filter1_f_205_13" x="-2.51941" y="30.4806" width="53.0388" height="29.0388" filterUnits="userSpaceOnUse" color-interpolation-filters="sRGB">
<feFlood flood-opacity="0" result="BackgroundImageFix"/>
<feBlend mode="normal" in="SourceGraphic" in2="BackgroundImageFix" result="shape"/>
<feGaussianBlur stdDeviation="5.7597" result="effect1_foregroundBlur_205_13"/>
</filter>
<radialGradient id="paint0_radial_205_13" cx="0" cy="0" r="1" gradientUnits="userSpaceOnUse" gradientTransform="translate(24 24.5) rotate(90) scale(16.5)">
<stop stop-color="#1C78F2" stop-opacity="0.6"/>
<stop offset="1" stop-color="#5FDEFE" stop-opacity="0"/>
</radialGradient>
<linearGradient id="paint1_linear_205_13" x1="24.0191" y1="15" x2="24.0191" y2="32.9618" gradientUnits="userSpaceOnUse">
<stop stop-color="#1B77F2"/>
<stop offset="1" stop-color="#62E3FF"/>
</linearGradient>
<linearGradient id="paint2_linear_205_13" x1="24" y1="42" x2="24" y2="48" gradientUnits="userSpaceOnUse">
<stop stop-color="#1B77F2"/>
<stop offset="1" stop-color="#62E3FF"/>
</linearGradient>
<linearGradient id="paint3_linear_205_13" x1="35" y1="8.5" x2="10" y2="36.5" gradientUnits="userSpaceOnUse">
<stop stop-color="white" stop-opacity="0.05"/>
<stop offset="0.328699" stop-color="white" stop-opacity="0.25"/>
<stop offset="1" stop-color="white" stop-opacity="0"/>
</linearGradient>
<clipPath id="clip0_205_13">
<rect width="48" height="48" rx="20" fill="white"/>
</clipPath>
</defs>
</svg>
