<svg width="48" height="48" viewBox="0 0 48 48" fill="none" xmlns="http://www.w3.org/2000/svg">
<g filter="url(#filter0_bii_205_16)">
<g clip-path="url(#clip0_205_16)">
<rect width="48" height="48" rx="20" fill="white" fill-opacity="0.02"/>
<rect width="48" height="48" rx="20" fill="url(#paint0_radial_205_16)" fill-opacity="0.6"/>
<path d="M24 15V16.6364M24 31.3636V33M17.6345 17.6345L18.7963 18.7963M29.2036 29.2036L30.3654 30.3654M15 24H16.6364M31.3636 24H33M17.6345 30.3654L18.7963 29.2036M29.2036 18.7963L30.3654 17.6345M28.0909 24C28.0909 26.2593 26.2593 28.0909 24 28.0909C21.7407 28.0909 19.9091 26.2593 19.9091 24C19.9091 21.7407 21.7407 19.9091 24 19.9091C26.2593 19.9091 28.0909 21.7407 28.0909 24Z" stroke="url(#paint1_linear_205_16)" stroke-width="2" stroke-linecap="round" stroke-linejoin="round"/>
<g filter="url(#filter1_f_205_16)">
<ellipse cx="24" cy="45" rx="15" ry="3" fill="url(#paint2_linear_205_16)"/>
</g>
</g>
<rect x="0.5" y="0.5" width="47" height="47" rx="19.5" stroke="url(#paint3_linear_205_16)"/>
</g>
<defs>
<filter id="filter0_bii_205_16" x="-7" y="-7" width="62" height="62" filterUnits="userSpaceOnUse" color-interpolation-filters="sRGB">
<feFlood flood-opacity="0" result="BackgroundImageFix"/>
<feGaussianBlur in="BackgroundImageFix" stdDeviation="3.5"/>
<feComposite in2="SourceAlpha" operator="in" result="effect1_backgroundBlur_205_16"/>
<feBlend mode="normal" in="SourceGraphic" in2="effect1_backgroundBlur_205_16" result="shape"/>
<feColorMatrix in="SourceAlpha" type="matrix" values="0 0 0 0 0 0 0 0 0 0 0 0 0 0 0 0 0 0 127 0" result="hardAlpha"/>
<feOffset dx="1" dy="1"/>
<feGaussianBlur stdDeviation="1"/>
<feComposite in2="hardAlpha" operator="arithmetic" k2="-1" k3="1"/>
<feColorMatrix type="matrix" values="0 0 0 0 1 0 0 0 0 1 0 0 0 0 1 0 0 0 0.1 0"/>
<feBlend mode="normal" in2="shape" result="effect2_innerShadow_205_16"/>
<feColorMatrix in="SourceAlpha" type="matrix" values="0 0 0 0 0 0 0 0 0 0 0 0 0 0 0 0 0 0 127 0" result="hardAlpha"/>
<feOffset dy="-1"/>
<feGaussianBlur stdDeviation="3"/>
<feComposite in2="hardAlpha" operator="arithmetic" k2="-1" k3="1"/>
<feColorMatrix type="matrix" values="0 0 0 0 0.117647 0 0 0 0 0.482353 0 0 0 0 0.952941 0 0 0 0.35 0"/>
<feBlend mode="normal" in2="effect2_innerShadow_205_16" result="effect3_innerShadow_205_16"/>
</filter>
<filter id="filter1_f_205_16" x="-2.51941" y="30.4806" width="53.0388" height="29.0388" filterUnits="userSpaceOnUse" color-interpolation-filters="sRGB">
<feFlood flood-opacity="0" result="BackgroundImageFix"/>
<feBlend mode="normal" in="SourceGraphic" in2="BackgroundImageFix" result="shape"/>
<feGaussianBlur stdDeviation="5.7597" result="effect1_foregroundBlur_205_16"/>
</filter>
<radialGradient id="paint0_radial_205_16" cx="0" cy="0" r="1" gradientUnits="userSpaceOnUse" gradientTransform="translate(24 24.5) rotate(90) scale(16.5)">
<stop stop-color="#1C78F2" stop-opacity="0.6"/>
<stop offset="1" stop-color="#5FDEFE" stop-opacity="0"/>
</radialGradient>
<linearGradient id="paint1_linear_205_16" x1="24" y1="15" x2="24" y2="33" gradientUnits="userSpaceOnUse">
<stop stop-color="#1B77F2"/>
<stop offset="1" stop-color="#62E3FF"/>
</linearGradient>
<linearGradient id="paint2_linear_205_16" x1="24" y1="42" x2="24" y2="48" gradientUnits="userSpaceOnUse">
<stop stop-color="#1B77F2"/>
<stop offset="1" stop-color="#62E3FF"/>
</linearGradient>
<linearGradient id="paint3_linear_205_16" x1="35" y1="8.5" x2="10" y2="36.5" gradientUnits="userSpaceOnUse">
<stop stop-color="white" stop-opacity="0.05"/>
<stop offset="0.328699" stop-color="white" stop-opacity="0.25"/>
<stop offset="1" stop-color="white" stop-opacity="0"/>
</linearGradient>
<clipPath id="clip0_205_16">
<rect width="48" height="48" rx="20" fill="white"/>
</clipPath>
</defs>
</svg>
